<mxfile host="app.diagrams.net" modified="2023-11-07T04:02:55.458Z" agent="Mozilla/5.0 (Windows NT 10.0; Win64; x64) AppleWebKit/537.36 (KHTML, like Gecko) Chrome/116.0.5845.931 YaBrowser/23.9.3.931 Yowser/2.5 Safari/537.36" etag="i50fUyk33_jdJ9107MAQ" version="22.0.8" type="google">
  <diagram name="Страница — 1" id="62nc-P_vzJ6_X7GWa422">
    <mxGraphModel dx="1290" dy="575" grid="1" gridSize="10" guides="1" tooltips="1" connect="1" arrows="1" fold="1" page="1" pageScale="1" pageWidth="827" pageHeight="1169" math="0" shadow="0">
      <root>
        <mxCell id="0" />
        <mxCell id="1" parent="0" />
        <mxCell id="WbynVjpk62zriafxWbaf-7" value="" style="rounded=0;whiteSpace=wrap;html=1;" parent="1" vertex="1">
          <mxGeometry x="490" y="330" width="50" height="30" as="geometry" />
        </mxCell>
        <mxCell id="WbynVjpk62zriafxWbaf-1" value="user" style="shape=umlActor;verticalLabelPosition=bottom;verticalAlign=top;html=1;outlineConnect=0;" parent="1" vertex="1">
          <mxGeometry x="70" y="324" width="30" height="60" as="geometry" />
        </mxCell>
        <mxCell id="WbynVjpk62zriafxWbaf-2" value="SErvice:FoodService" style="html=1;whiteSpace=wrap;" parent="1" vertex="1">
          <mxGeometry x="390" y="340" width="110" height="50" as="geometry" />
        </mxCell>
        <mxCell id="WbynVjpk62zriafxWbaf-6" value="" style="rounded=0;whiteSpace=wrap;html=1;" parent="1" vertex="1">
          <mxGeometry x="400" y="320" width="50" height="20" as="geometry" />
        </mxCell>
        <mxCell id="WbynVjpk62zriafxWbaf-10" value="" style="line;strokeWidth=1;fillColor=none;align=left;verticalAlign=middle;spacingTop=-1;spacingLeft=3;spacingRight=3;rotatable=0;labelPosition=right;points=[];portConstraint=eastwest;strokeColor=inherit;" parent="1" vertex="1">
          <mxGeometry x="110" y="369" width="280" height="8" as="geometry" />
        </mxCell>
        <mxCell id="WbynVjpk62zriafxWbaf-11" value="" style="endArrow=open;endFill=1;endSize=12;html=1;rounded=0;" parent="1" edge="1">
          <mxGeometry width="160" relative="1" as="geometry">
            <mxPoint x="120" y="359.5" as="sourcePoint" />
            <mxPoint x="390" y="360" as="targetPoint" />
          </mxGeometry>
        </mxCell>
        <mxCell id="WbynVjpk62zriafxWbaf-12" value="1:&amp;nbsp;user infoDelivery (servName: string, name: FoodService)" style="edgeLabel;html=1;align=center;verticalAlign=middle;resizable=0;points=[];" parent="WbynVjpk62zriafxWbaf-11" vertex="1" connectable="0">
          <mxGeometry x="-0.1538" y="-3" relative="1" as="geometry">
            <mxPoint x="-4" y="-3" as="offset" />
          </mxGeometry>
        </mxCell>
        <mxCell id="WbynVjpk62zriafxWbaf-13" value="service:Service" style="html=1;whiteSpace=wrap;" parent="1" vertex="1">
          <mxGeometry x="700" y="340" width="110" height="50" as="geometry" />
        </mxCell>
        <mxCell id="WbynVjpk62zriafxWbaf-18" value="1.1 addUser(User)" style="html=1;verticalAlign=bottom;endArrow=block;curved=0;rounded=0;" parent="1" edge="1">
          <mxGeometry width="80" relative="1" as="geometry">
            <mxPoint x="400" y="310" as="sourcePoint" />
            <mxPoint x="440" y="310" as="targetPoint" />
          </mxGeometry>
        </mxCell>
        <mxCell id="WbynVjpk62zriafxWbaf-19" value="1.2 *search(servName)" style="html=1;verticalAlign=bottom;endArrow=block;curved=0;rounded=0;" parent="1" edge="1">
          <mxGeometry x="-1" width="80" relative="1" as="geometry">
            <mxPoint x="550" y="330" as="sourcePoint" />
            <mxPoint x="550" y="350" as="targetPoint" />
            <mxPoint as="offset" />
          </mxGeometry>
        </mxCell>
        <mxCell id="WbynVjpk62zriafxWbaf-22" value="" style="line;strokeWidth=1;fillColor=none;align=left;verticalAlign=middle;spacingTop=-1;spacingLeft=3;spacingRight=3;rotatable=0;labelPosition=right;points=[];portConstraint=eastwest;strokeColor=inherit;" parent="1" vertex="1">
          <mxGeometry x="500" y="369" width="200" height="8" as="geometry" />
        </mxCell>
        <mxCell id="WbynVjpk62zriafxWbaf-24" value="" style="endArrow=open;endFill=1;endSize=12;html=1;rounded=0;" parent="1" edge="1">
          <mxGeometry width="160" relative="1" as="geometry">
            <mxPoint x="540" y="410" as="sourcePoint" />
            <mxPoint x="660" y="410" as="targetPoint" />
          </mxGeometry>
        </mxCell>
        <mxCell id="WbynVjpk62zriafxWbaf-25" value="1.2.2 getInfo()" style="text;html=1;strokeColor=none;fillColor=none;align=center;verticalAlign=middle;whiteSpace=wrap;rounded=0;" parent="1" vertex="1">
          <mxGeometry x="520" y="380" width="160" height="30" as="geometry" />
        </mxCell>
        <mxCell id="WbynVjpk62zriafxWbaf-27" value="" style="endArrow=open;endFill=1;endSize=12;html=1;rounded=0;" parent="1" edge="1">
          <mxGeometry width="160" relative="1" as="geometry">
            <mxPoint x="540" y="364.5" as="sourcePoint" />
            <mxPoint x="675" y="365" as="targetPoint" />
          </mxGeometry>
        </mxCell>
        <mxCell id="WbynVjpk62zriafxWbaf-28" value="1.2.1 name == getName()" style="text;html=1;strokeColor=none;fillColor=none;align=center;verticalAlign=middle;whiteSpace=wrap;rounded=0;" parent="1" vertex="1">
          <mxGeometry x="540" y="339" width="160" height="30" as="geometry" />
        </mxCell>
        <mxCell id="WbynVjpk62zriafxWbaf-29" value="[name == servName]" style="text;html=1;strokeColor=none;fillColor=none;align=center;verticalAlign=middle;whiteSpace=wrap;rounded=0;" parent="1" vertex="1">
          <mxGeometry x="520" y="369" width="160" height="30" as="geometry" />
        </mxCell>
        <mxCell id="hdeQcY67ngqA9IVTwswM-1" value="sd user infoDelivery (servName: string, name: FoodService)" style="shape=umlFrame;whiteSpace=wrap;html=1;pointerEvents=0;width=390;height=40;" parent="1" vertex="1">
          <mxGeometry x="45" y="235" width="1020" height="220" as="geometry" />
        </mxCell>
        <mxCell id="hdeQcY67ngqA9IVTwswM-2" value="&lt;font style=&quot;font-size: 16px;&quot;&gt;На диаграмме изображен сценарий infoDelivery&lt;span style=&quot;border-color: var(--border-color); background-color: initial;&quot;&gt;&amp;nbsp;объекта user&lt;/span&gt;. &lt;br&gt;Первым действием user посылает сообщение infoDelivery(servName, name)&amp;nbsp;объекту SErvice класса FoodService, в качестве аргумента передавая servName и name. SErvice сразу добавляет данные о клиенте в свою память (1.1), после чего на основе заданных аргуметов ищет нужную услугу(1.2). Производится посылка сообщения getName() объекту service класса Service (1.2.1). При выполнении условия [name == servName] вызывается операция getInfo() объекту cook класса Cook (1.2.2). Далее объект cook запрашивает информацию у объекта service одноименного класса, обращаясь к операции getInfo() (1.2.2)&amp;nbsp;&lt;/font&gt;" style="text;html=1;strokeColor=none;fillColor=none;align=center;verticalAlign=middle;whiteSpace=wrap;rounded=0;" parent="1" vertex="1">
          <mxGeometry x="45" y="430" width="1030" height="220" as="geometry" />
        </mxCell>
      </root>
    </mxGraphModel>
  </diagram>
</mxfile>
